<svg width="112" height="138" viewBox="0 0 112 138" fill="none" xmlns="http://www.w3.org/2000/svg">
<path opacity="0.2" d="M108.231 46.8168C107.43 47.4399 93.3673 55.3615 93.3673 72.9842C93.3673 93.3664 111.257 100.576 111.792 100.754C111.703 101.198 108.943 110.633 102.357 120.246C96.4827 128.702 90.3407 137.157 80.9954 137.157C71.6502 137.157 69.2466 131.727 58.4768 131.727C47.9742 131.727 44.2357 137.335 35.6911 137.335C27.1464 137.335 21.1828 129.502 14.3299 119.89C6.40828 108.586 0 91.0517 0 74.4079C0 47.7062 17.3565 33.5538 34.4449 33.5538C43.5239 33.5538 51.0887 39.5174 56.7851 39.5174C62.2144 39.5174 70.6703 33.1979 80.9946 33.1979C84.9114 33.1988 98.975 33.5556 108.231 46.8168V46.8168ZM76.1004 21.8955C80.3723 16.8222 83.3989 9.79081 83.3989 2.75945C83.3989 1.78046 83.3102 0.801466 83.1318 0C76.1892 0.267155 67.9117 4.62868 62.9271 10.4139C59.0111 14.8642 55.3614 21.8955 55.3614 29.0165C55.3614 30.0843 55.5398 31.1529 55.6286 31.5088C56.0733 31.5976 56.786 31.6872 57.4978 31.6872C63.7286 31.6863 71.5605 27.5032 76.1004 21.8955V21.8955Z" fill="white"/>
</svg>
